<svg width="21" height="24" viewBox="0 0 21 24" fill="none" xmlns="http://www.w3.org/2000/svg">
<path d="M2.43878 23C2.33708 22.957 2.23114 22.9184 2.12943 22.8754C1.41752 22.5746 0.964095 21.8828 1.00223 21.0965C1.05308 20.091 1.1336 19.0812 1.2014 18.0758C1.27768 16.9328 1.34972 15.7898 1.42176 14.6469C1.51075 13.2547 1.60397 11.8625 1.69296 10.4703C1.75653 9.46484 1.8328 8.45938 1.88789 7.44961C1.94722 6.31094 2.71422 5.56758 3.83719 5.58047C3.96432 5.58047 4.09144 5.57617 4.21857 5.58477C4.46859 5.61055 4.63386 5.79961 4.63386 6.04453C4.62962 6.29805 4.45164 6.48711 4.19315 6.5C4.04483 6.50859 3.89651 6.5 3.7482 6.5043C3.21426 6.51289 2.84983 6.87383 2.81593 7.41094C2.69727 9.2457 2.57438 11.0805 2.45149 12.9152C2.3625 14.2859 2.27351 15.6566 2.18452 17.0273C2.09553 18.368 2.00654 19.7129 1.92603 21.0535C1.88789 21.6852 2.27351 22.0891 2.8922 22.0891C7.96037 22.0891 13.0328 22.0891 18.101 22.0891C18.7493 22.0891 19.1265 21.6508 19.0798 21.002C18.9908 19.8547 18.9273 18.7031 18.851 17.5516C18.7408 15.8801 18.6307 14.2086 18.5205 12.5414C18.4442 11.3555 18.3679 10.1695 18.2916 8.98359C18.2577 8.44219 18.2196 7.89648 18.1815 7.35508C18.1433 6.85664 17.7831 6.51719 17.2873 6.5C17.1094 6.4957 16.9356 6.5043 16.7576 6.49141C16.5415 6.47422 16.389 6.29805 16.3805 6.07461C16.3678 5.84258 16.4949 5.64922 16.6941 5.59766C17.4865 5.38711 18.4315 5.75234 18.8298 6.46562C18.9739 6.72344 19.0714 7.03711 19.0925 7.33359C19.2324 9.20273 19.351 11.0762 19.4739 12.9453C19.5629 14.316 19.6519 15.6867 19.7409 17.0574C19.8257 18.3637 19.9189 19.6699 19.9952 20.9762C20.0545 21.9902 19.5672 22.6691 18.6095 22.9613C18.5925 22.9656 18.5756 22.9828 18.5586 22.9957C13.1769 23 7.80782 23 2.43878 23ZM9.98171 1C9.94357 1.01289 9.90543 1.03438 9.86306 1.03867C7.4222 1.35234 5.56189 3.44922 5.52375 5.9457C5.51528 6.5043 5.51952 7.06289 5.51952 7.62148C5.51952 7.70313 5.51952 7.78477 5.51952 7.8793C5.35001 7.8793 5.21441 7.875 5.08304 7.8793C4.8076 7.88359 4.62114 8.05977 4.60843 8.32187C4.59572 8.57969 4.77794 8.79453 5.0449 8.79883C5.66783 8.81172 6.28652 8.81172 6.90945 8.79883C7.18913 8.79453 7.35863 8.58828 7.35016 8.32617C7.34168 8.05977 7.15947 7.88789 6.87979 7.88359C6.73571 7.8793 6.58739 7.88359 6.44331 7.88359C6.44331 7.14883 6.4306 6.43984 6.44755 5.73516C6.45603 5.47305 6.51111 5.21094 6.57892 4.95742C6.9942 3.35039 8.44346 2.0957 10.0283 1.9582C11.8378 1.79922 13.4311 2.69297 14.1727 4.28711C14.427 4.83281 14.5583 5.4043 14.5583 6.01016C14.5626 6.62891 14.5583 7.25195 14.5583 7.88789C14.3973 7.88789 14.2659 7.88789 14.1346 7.88789C13.8422 7.89219 13.6727 8.05117 13.6642 8.32187C13.6557 8.60977 13.8125 8.80312 14.1091 8.80742C14.7236 8.82031 15.338 8.82031 15.9525 8.80742C16.2322 8.80312 16.3932 8.60977 16.389 8.33477C16.3847 8.06406 16.2067 7.89219 15.9271 7.88359C15.783 7.8793 15.6347 7.88359 15.4821 7.88359C15.4821 7.30781 15.4779 6.76641 15.4821 6.2207C15.4991 3.77148 13.9947 1.74766 11.7234 1.15039C11.4861 1.09023 11.2445 1.04727 11.003 1C10.6597 1 10.3207 1 9.98171 1ZM10.3419 12.275C9.92238 11.8668 9.44777 11.5531 8.84179 11.5961C7.78663 11.6691 7.00691 12.2105 6.60858 13.2074C6.20601 14.2043 6.41789 15.1281 7.15099 15.8973C8.0197 16.8082 8.9096 17.6977 9.79525 18.5914C10.1978 18.9953 10.7784 19.0039 11.1767 18.6C12.0708 17.6977 12.9692 16.7953 13.8549 15.8801C14.8253 14.8746 14.821 13.3449 13.8337 12.3566C12.9904 11.5145 11.8124 11.2652 10.7402 12.2105C10.6597 12.2793 10.5877 12.3523 10.5029 12.434C10.4394 12.3695 10.3885 12.3223 10.3419 12.275ZM9.90119 17.3625C9.22318 16.675 8.54092 15.9875 7.85443 15.3043C7.39253 14.8402 7.21456 14.2945 7.40948 13.6629C7.60018 13.0441 8.04513 12.6832 8.66382 12.5414C9.23589 12.4125 9.64694 12.6746 9.98595 13.1086C10.4012 13.6371 10.6004 13.6414 11.003 13.1172C11.3716 12.6359 11.842 12.391 12.448 12.5715C13.0794 12.7605 13.4947 13.1773 13.6303 13.8434C13.7362 14.359 13.5921 14.8188 13.2362 15.184C12.3505 16.0992 11.4479 16.9973 10.5538 17.8996C10.5411 17.9125 10.5199 17.9211 10.4478 17.9641C10.2699 17.7707 10.0919 17.5602 9.90119 17.3625ZM13.1896 6.5043C13.5032 6.5043 13.6769 6.33242 13.6727 6.04023C13.6684 5.75234 13.4947 5.58906 13.1769 5.58906C12.1471 5.58477 11.1131 5.58477 10.0834 5.58477C9.33336 5.58477 8.58754 5.58906 7.83748 5.58477C7.62984 5.58477 7.46034 5.64062 7.36711 5.84688C7.22303 6.16914 7.43067 6.5043 7.78663 6.5043C8.68924 6.50859 9.59609 6.5043 10.4987 6.5043C11.3971 6.5043 12.2912 6.5043 13.1896 6.5043Z" fill="white" stroke="white" stroke-width="0.5"/>
</svg>
