<svg width="32" height="27" viewBox="0 0 32 27" fill="none" xmlns="http://www.w3.org/2000/svg">
<path d="M16.1605 3.60299C16.6141 3.0479 17.0676 2.60383 17.5212 2.15976C18.8819 0.938565 20.4694 0.272458 22.2836 0.0504221C24.0979 -0.0605957 25.9121 -0.0605957 27.4996 0.827547C30.1076 2.27078 31.5817 4.49113 31.9219 7.3776C32.262 10.153 31.4683 12.5954 29.9942 14.9268C28.5201 17.2582 26.5925 19.1455 24.5514 20.9218C21.9434 23.1421 19.1087 25.1405 16.2739 26.9167C16.1605 27.0278 15.9337 27.0278 15.8203 26.9167C11.7383 24.3633 7.88296 21.5879 4.59462 18.1463C2.89376 16.259 1.30629 14.2607 0.512549 11.8183C-0.394579 8.82083 -0.167797 5.93437 1.75985 3.38096C3.23393 1.38264 5.16158 0.272458 7.65618 0.16144C9.58383 0.0504221 11.3981 0.16144 13.099 1.1606C14.1195 1.71569 15.0266 2.49281 15.8203 3.38096C15.8203 3.26994 15.9337 3.38096 16.1605 3.60299Z" fill="#E3999B"/>
</svg>
