<svg width="12" height="12" viewBox="0 0 12 12" fill="none" xmlns="http://www.w3.org/2000/svg">
<path d="M11.9614 3.54186C11.9546 3.038 11.8602 2.53916 11.6821 2.06764C11.5278 1.66991 11.292 1.3087 10.9899 1.00709C10.6878 0.705486 10.326 0.470108 9.92759 0.316C9.46135 0.141273 8.9688 0.0467954 8.4709 0.0365895C7.82985 0.00798319 7.62661 0 5.99933 0C4.37206 0 4.16348 4.46093e-08 3.5271 0.0365895C3.02943 0.0468704 2.5371 0.141347 2.07108 0.316C1.67263 0.470001 1.31076 0.705341 1.00864 1.00696C0.706516 1.30858 0.470784 1.66985 0.316526 2.06764C0.141158 2.53274 0.046728 3.02436 0.0373167 3.52123C0.00866281 4.16188 0 4.36479 0 5.98936C0 7.61393 -4.96485e-09 7.82149 0.0373167 8.45748C0.0473123 8.9551 0.14127 9.44606 0.316526 9.91241C0.471042 10.3101 0.70695 10.6712 1.00918 10.9727C1.3114 11.2742 1.6733 11.5094 2.07175 11.6634C2.5365 11.8451 3.0289 11.9464 3.52777 11.9627C4.16948 11.9914 4.37272 12 6 12C7.62728 12 7.83585 12 8.47223 11.9627C8.97012 11.953 9.4627 11.8587 9.92892 11.684C10.3272 11.5297 10.6889 11.2943 10.991 10.9927C11.2931 10.6911 11.5289 10.33 11.6835 9.93237C11.8587 9.46668 11.9527 8.97572 11.9627 8.47744C11.9913 7.83745 12 7.63455 12 6.00931C11.9987 4.38474 11.9987 4.17851 11.9614 3.54186ZM5.99534 9.06154C4.29343 9.06154 2.9147 7.68511 2.9147 5.98603C2.9147 4.28695 4.29343 2.91052 5.99534 2.91052C6.81237 2.91052 7.59594 3.23455 8.17367 3.81132C8.7514 4.38809 9.07597 5.17035 9.07597 5.98603C9.07597 6.80171 8.7514 7.58397 8.17367 8.16074C7.59594 8.73751 6.81237 9.06154 5.99534 9.06154ZM9.19858 3.51392C9.10422 3.514 9.01077 3.49551 8.92358 3.4595C8.83638 3.42349 8.75716 3.37067 8.69044 3.30406C8.62371 3.23745 8.5708 3.15836 8.53473 3.07131C8.49866 2.98426 8.48014 2.89096 8.48023 2.79676C8.48023 2.70263 8.4988 2.60942 8.53489 2.52245C8.57097 2.43548 8.62386 2.35646 8.69053 2.28989C8.75721 2.22333 8.83636 2.17053 8.92347 2.13451C9.01059 2.09848 9.10396 2.07994 9.19825 2.07994C9.29254 2.07994 9.3859 2.09848 9.47302 2.13451C9.56013 2.17053 9.63929 2.22333 9.70596 2.28989C9.77263 2.35646 9.82552 2.43548 9.8616 2.52245C9.89769 2.60942 9.91626 2.70263 9.91626 2.79676C9.91626 3.19326 9.59507 3.51392 9.19858 3.51392Z" fill="#4F3119"/>
</svg>
