<svg width="24" height="32" viewBox="0 0 24 32" fill="none" xmlns="http://www.w3.org/2000/svg">
<path d="M0.752008 17.0492C1.06707 18.1588 1.55542 19.192 2.09891 20.205C2.78023 21.4714 3.56395 22.6734 4.46188 23.7829C5.65913 25.2704 6.91151 26.7096 8.15601 28.1568C9.14452 29.3065 10.1567 30.4281 11.1452 31.5779C11.6138 32.1206 12.37 32.1487 12.8347 31.606C12.9607 31.4573 13.0828 31.3005 13.2128 31.1518C14.2013 30.0221 15.1977 28.9005 16.1744 27.7668C17.2377 26.5286 18.2893 25.2784 19.3447 24.0322C19.4707 23.8834 19.5771 23.7226 19.6755 23.59L19.7622 23.4774C19.7779 23.4613 19.7976 23.4492 19.8134 23.4332C19.8094 23.4291 19.8094 23.4251 19.8055 23.4251L19.8606 23.3528C19.9197 23.2724 19.9394 23.2482 19.9591 23.2201C20.1914 22.8945 20.4277 22.5688 20.6522 22.2392C21.8967 20.4221 22.9049 18.4844 23.4799 16.3297C23.5981 15.8794 23.7202 15.4251 23.7871 14.9668C23.8856 14.2794 23.988 13.5879 23.9998 12.8925C24.0155 12.0925 23.9683 11.2884 23.8895 10.4884C23.8619 10.203 23.8029 9.91759 23.7359 9.63618C23.606 8.7196 23.2279 7.78694 22.9483 7.19598V7.19196C22.7671 6.81005 22.6293 6.57287 22.6293 6.57287C22.5544 6.42413 22.4757 6.27538 22.3969 6.13066C21.6211 4.74372 20.6168 3.55779 19.3802 2.57287C18.5216 1.88945 17.5922 1.33066 16.584 0.920609C15.9617 0.667342 15.3198 0.454277 14.666 0.309554C14.0044 0.16081 13.3231 0.104528 12.6457 0.0361868C11.728 -0.0562755 10.8104 0.0321667 9.90461 0.188951C9.09726 0.329654 8.32142 0.56282 7.56526 0.868347C6.47436 1.31056 5.47009 1.89749 4.54459 2.62915C3.59152 3.38091 2.78811 4.27739 2.10678 5.29046C1.49635 6.199 1.008 7.17588 0.657489 8.21709C0.314857 9.23417 0.106127 10.2834 0.0312993 11.3608C-0.0474666 12.4985 0.00373126 13.6281 0.188831 14.7417C0.318795 15.5216 0.535402 16.2894 0.752008 17.0492ZM11.6099 5.47136C15.6821 5.2583 18.5728 8.63116 18.5571 12.1849C18.5413 15.8513 15.5521 18.9347 11.988 18.8744C8.412 18.9106 5.41889 15.8673 5.42283 12.1809C5.43071 8.38995 8.38049 5.64021 11.6099 5.47136ZM7.49437 12.1729C7.49437 9.66432 9.49897 7.56985 12.0037 7.56583C14.4849 7.56181 16.5013 9.66433 16.4776 12.1648C16.5131 14.6693 14.473 16.7477 12.0077 16.7437C9.53047 16.7397 7.49437 14.6854 7.49437 12.1729Z" fill="#E3999B"/>
</svg>
