<svg width="15" height="12" viewBox="0 0 15 12" fill="none" xmlns="http://www.w3.org/2000/svg">
<path d="M14.5437 1.4291C13.9983 1.67203 13.4206 1.83246 12.8292 1.90526C13.4526 1.52613 13.9193 0.930961 14.1429 0.229952C13.5533 0.576457 12.9115 0.822572 12.2432 0.958486C11.7938 0.471932 11.1984 0.149267 10.5495 0.0405513C9.90066 -0.0681641 9.2345 0.0431487 8.65443 0.357219C8.07435 0.67129 7.61279 1.17056 7.34136 1.77757C7.06992 2.38457 7.00378 3.06538 7.15321 3.71437C4.67014 3.59671 2.46895 2.38787 0.996777 0.561691C0.728788 1.02349 0.588629 1.54995 0.591054 2.08566C0.590688 2.58367 0.711698 3.07406 0.943336 3.51329C1.17497 3.95252 1.51007 4.327 1.91887 4.60346C1.44513 4.58895 0.981709 4.4597 0.567375 4.22651V4.26296C0.56723 4.96197 0.805622 5.63954 1.24215 6.18082C1.67867 6.7221 2.28648 7.0938 2.96255 7.23292C2.70646 7.30225 2.4426 7.33777 2.17752 7.33858C1.98581 7.33858 1.80276 7.31966 1.62016 7.28552C1.81256 7.88704 2.18526 8.41282 2.68638 8.78967C3.18751 9.16652 3.79211 9.3757 4.41605 9.38807C3.3589 10.2269 2.05447 10.682 0.711723 10.6804C0.473893 10.6814 0.236222 10.6678 0 10.6398C1.36976 11.5291 2.96272 12.0012 4.58954 12C10.0843 12 13.087 7.38841 13.087 3.39462C13.087 3.26728 13.087 3.13763 13.0774 3.00752C13.6648 2.58098 14.1709 2.05011 14.5714 1.44064L14.5437 1.4291Z" fill="#4F3119"/>
</svg>
